<svg aria-hidden="true" style="position: absolute; width: 0; height: 0; overflow: hidden;" version="1.1" xmlns="http://www.w3.org/2000/svg" xmlns:xlink="http://www.w3.org/1999/xlink">
<defs>
    <symbol id="icon-close" viewBox="0 0 32 32">
      <path fill="none" stroke="#f0f0f0" style="stroke:var(--color1, #f0f0f0)" stroke-linejoin="round" stroke-linecap="round" stroke-width="2" d="M24 8 8 24M8 8l16 16"/>
    </symbol>
    <symbol id="icon-menu" viewBox="0 0 44 32">
      <path fill="#f0f0f0" style="fill:var(--color1, #f0f0f0)" d="M.668 30.052v-2.667h42.667v2.667H.668zm0-12.72v-2.667h42.667v2.667H.668zm0-12.72V1.945h42.667v2.667H.668z"/>
    </symbol>
    <symbol id="icon-arrow" viewBox="0 0 32 32">
      <path fill="none" stroke="#00b068" style="stroke: var(--color1, #00b068)" stroke-linejoin="round" stroke-linecap="round" stroke-miterlimit="4" stroke-width="2.6667" d="M6.333 25.667l19.333-19.333M25.667 6.333h-18M25.667 6.333v18"></path>
    </symbol>
    <symbol id="icon-arrow-narrow-right" viewBox="0 0 32 32">
      <path stroke-linejoin="round" stroke-linecap="round" stroke-width="2.667" d="M5.333 16h21.333M18.667 8l8 8-8 8"/>
    </symbol>
    <symbol id="icon-up-btn" viewBox="0 0 32 32">
      <path fill="none" stroke="#f0f0f0" style="stroke:var(--color1, #f0f0f0)" stroke-linecap="round" stroke-width="2" d="m22 19-6-6-6 6"/>
    </symbol>
    <symbol id="icon-down-btn" viewBox="0 0 32 32">
      <path stroke-linecap="round" stroke-width="2" d="m22 13-6 6-6-6"/>
    </symbol>
    <symbol id="icon-toggle-btn-dark" viewBox="0 0 32 32">
      <path fill="#2a2d32" style="fill:var(--color1, #2a2d32)" d="M8 8h16a8 8 0 0 1 0 16H8A8 8 0 0 1 8 8z"/>
      <path fill="#14c57c" style="fill:var(--color2, #14c57c)" d="M21.333 22.112a6.668 6.668 0 0 0 0-12.224 6.667 6.667 0 1 1 0 12.224z"/>
    </symbol>
    <symbol id="icon-toggle-btn-light" viewBox="0 0 32 32">
      <path fill="#e4e5e6" style="fill:var(--color3, #e4e5e6)" d="M8 8h16a8 8 0 0 1 0 16H8A8 8 0 0 1 8 8z"/>
      <path fill="#00b068" style="fill:var(--color4, #00b068)" d="M14.667 16a6.667 6.667 0 1 1-13.334 0 6.667 6.667 0 0 1 13.334 0z"/>
    </symbol>
    <symbol id="icon-time" viewBox="0 0 32 32">
      <path fill="#00b068" style="fill:var(--color4, #00b068)" opacity=".1" d="M5.333 0h21.333a5.333 5.333 0 0 1 5.333 5.333v21.333a5.333 5.333 0 0 1-5.333 5.333H5.333A5.333 5.333 0 0 1 0 26.666V5.333A5.333 5.333 0 0 1 5.333 0z"/>
      <path fill="none" stroke="#00b068" style="stroke:var(--color4, #00b068)" stroke-linejoin="round" stroke-linecap="round" stroke-width="1.333" d="M20.108 9.333h-8.217a.558.558 0 0 0-.558.558 6.7 6.7 0 0 0 1.962 4.737l.813.813c.081.081.121.121.15.16a.668.668 0 0 1 0 .797c-.029.039-.069.079-.15.16l-.813.813a6.7 6.7 0 0 0-1.962 4.737c0 .308.25.558.558.558h8.217c.308 0 .558-.25.558-.558a6.7 6.7 0 0 0-1.962-4.737l-.813-.813a1.653 1.653 0 0 1-.15-.16.668.668 0 0 1 0-.797c.029-.039.069-.079.15-.16l.813-.813a6.7 6.7 0 0 0 1.962-4.737.558.558 0 0 0-.558-.558z"/>
    </symbol>
    <symbol id="icon-person" viewBox="0 0 32 32">
      <path fill="#00b068" style="fill:var(--color4, #00b068)" opacity=".1" d="M5.333 0h21.333a5.333 5.333 0 0 1 5.333 5.333v21.333a5.333 5.333 0 0 1-5.333 5.333H5.333A5.333 5.333 0 0 1 0 26.666V5.333A5.333 5.333 0 0 1 5.333 0z"/>
      <path fill="none" stroke="#00b068" style="stroke:var(--color4, #00b068)" stroke-linejoin="round" stroke-linecap="round" stroke-width="1.333" d="M21.333 22c0-.93 0-1.396-.115-1.774a2.67 2.67 0 0 0-1.778-1.778c-.379-.115-.844-.115-1.774-.115h-3.333c-.93 0-1.396 0-1.774.115a2.67 2.67 0 0 0-1.778 1.778c-.115.379-.115.844-.115 1.774M16 16a3 3 0 1 0 0-6 3 3 0 0 0 0 6z"/>
    </symbol>
    <symbol id="icon-paint" viewBox="0 0 32 32">
      <path fill="#00b068" style="fill:var(--color4, #00b068)" opacity=".1" d="M5.333 0h21.333a5.333 5.333 0 0 1 5.333 5.333v21.333a5.333 5.333 0 0 1-5.333 5.333H5.333A5.333 5.333 0 0 1 0 26.666V5.333A5.333 5.333 0 0 1 5.333 0z"/>
      <path fill="none" stroke="#00b068" style="stroke:var(--color4, #00b068)" stroke-linejoin="round" stroke-linecap="round" stroke-width="1.333" d="M16.519 18 14 15.482M9.333 22.666c1.333 0 3.072.228 3.983-.683a2.334 2.334 0 0 0-3.3-3.3c-.911.911 0 2.65-.683 3.983z"/>
      <path fill="none" stroke="#00b068" style="stroke:var(--color4, #00b068)" stroke-linejoin="round" stroke-linecap="round" stroke-width="1.333" d="M13.333 18.666c-.328-.328-.491-.491-.584-.663a1.332 1.332 0 0 1 .025-1.311c.099-.168.269-.325.609-.64l6.579-6.091a1.47 1.47 0 0 1 2.077 2.077l-6.091 6.579c-.315.34-.472.51-.64.609-.403.238-.9.247-1.311.025-.172-.093-.335-.256-.663-.584z"/>
    </symbol>
    <symbol id="icon-message" viewBox="0 0 32 32">
      <path fill="#00b068" style="fill:var(--color4, #00b068)" opacity=".1" d="M5.333 0h21.333a5.333 5.333 0 0 1 5.333 5.333v21.333a5.333 5.333 0 0 1-5.333 5.333H5.333A5.333 5.333 0 0 1 0 26.666V5.333A5.333 5.333 0 0 1 5.333 0z"/>
      <path fill="none" stroke="#00b068" style="stroke:var(--color4, #00b068)" stroke-linejoin="round" stroke-linecap="round" stroke-width="1.333" d="M12.063 15.486a5.398 5.398 0 0 1-.063-.819c0-2.946 2.403-5.333 5.368-5.333s5.368 2.388 5.368 5.333c0 .665-.123 1.302-.347 1.89-.047.122-.07.183-.08.231s-.015.08-.016.129c-.001.049.005.102.019.21l.268 2.18c.029.236.044.354.004.44a.334.334 0 0 1-.171.168c-.087.037-.204.02-.44-.014l-2.123-.311c-.111-.016-.166-.024-.217-.024s-.084.004-.133.014-.113.034-.239.081a5.379 5.379 0 0 1-2.714.279m-3.459 2.727c1.977 0 3.579-1.642 3.579-3.667s-1.602-3.667-3.579-3.667S9.509 16.975 9.509 19c0 .407.065.799.184 1.164.051.155.076.232.084.285.009.055.01.086.007.142a1.563 1.563 0 0 1-.043.234l-.408 1.841 1.997-.273c.109-.015.163-.022.211-.022.05 0 .077.003.126.013.047.009.116.034.255.083a3.5 3.5 0 0 0 1.166.199z"/>
    </symbol>
    <symbol id="icon-navigation" viewBox="0 0 32 32">
      <path fill="none" stroke="#00b068" style="stroke:var(--color4, #00b068)" stroke-linejoin="round" stroke-linecap="round" stroke-width="1.333" d="M20 14a4.003 4.003 0 0 1-4 4 4.003 4.003 0 0 1-4-4 4.003 4.003 0 0 1 4-4 4.003 4.003 0 0 1 4 4v0z"/>
      <path fill="none" stroke="#00b068" style="stroke:var(--color4, #00b068)" stroke-linejoin="round" stroke-linecap="round" stroke-width="1.333" d="M26 14c0 9.523-10 15-10 15S6 23.523 6 14a10.001 10.001 0 0 1 20 0v0z"/>
    </symbol>
    <symbol id="icon-mail" viewBox="0 0 32 32">
      <path fill="none" stroke="#00b068" style="stroke:var(--color4, #00b068)" stroke-linejoin="round" stroke-linecap="round" stroke-width="1.333" d="M29 9v14a3.004 3.004 0 0 1-3 3H6a3.004 3.004 0 0 1-3-3V9m26 0a3.004 3.004 0 0 0-3-3H6a3.004 3.004 0 0 0-3 3m26 0v.324a2.998 2.998 0 0 1-1.427 2.555l-10 6.153a3.004 3.004 0 0 1-3.146 0l-10-6.152A3.001 3.001 0 0 1 3 9.325V9"/>
    </symbol>
    <symbol id="icon-phone" viewBox="0 0 32 32">
      <path fill="none" stroke="#00b068" style="stroke:var(--color4, #00b068)" stroke-linejoin="round" stroke-linecap="round" stroke-width="1.333" d="M3 9c0 11.045 8.955 20 20 20h3a3.004 3.004 0 0 0 3-3v-1.829a1.5 1.5 0 0 0-1.136-1.455l-5.897-1.475a1.498 1.498 0 0 0-1.564.556l-1.293 1.724c-.376.501-1.025.723-1.613.507a16.028 16.028 0 0 1-9.524-9.524c-.216-.588.005-1.237.507-1.613l1.724-1.293c.484-.361.703-.979.556-1.564L9.285 4.137A1.498 1.498 0 0 0 7.83 3.001H6.001a3.004 3.004 0 0 0-3 3v3z"/>
    </symbol>
    <symbol id="icon-arrow" viewBox="0 0 32 32">
      <path fill="none" stroke="#00b068" style="stroke:var(--color4, #00b068)" stroke-linejoin="round" stroke-linecap="round" stroke-width="2.667" d="M6.333 25.667 25.666 6.334m.001-.001h-18m18 0v18"/>
    </symbol>
    <symbol id="icon-arrow-prev" viewBox="0 0 32 32">
<path stroke-linejoin="round" stroke-linecap="round" stroke-miterlimit="4" stroke-width="2.6667" d="M26.667 16h-21.333"></path>
<path stroke-linejoin="round" stroke-linecap="round" stroke-miterlimit="4" stroke-width="2.6667" d="M13.333 8l-8 8 8 8"></path>
</symbol>
<symbol id="icon-arrow-next" viewBox="0 0 32 32">
<path stroke-linejoin="round" stroke-linecap="round" stroke-miterlimit="4" stroke-width="2.6667" d="M5.333 16h21.333"></path>
<path stroke-linejoin="round" stroke-linecap="round" stroke-miterlimit="4" stroke-width="2.6667" d="M18.667 8l8 8-8 8"></path>
</symbol>
<symbol id="icon-arrow-next" viewBox="0 0 32 32">
<path stroke-linejoin="round" stroke-linecap="round" stroke-miterlimit="4" stroke-width="2.6667" d="M5.333 16h21.333"></path>
<path stroke-linejoin="round" stroke-linecap="round" stroke-miterlimit="4" stroke-width="2.6667" d="M18.667 8l8 8-8 8"></path>
</symbol>
</svg>
